<svg width="512" height="512" viewBox="0 0 512 512" fill="none" xmlns="http://www.w3.org/2000/svg">
<path d="M307.145 445.651C308.976 450.676 305.248 455.968 299.856 455.968H74.0312C74.0645 455.902 74.0645 455.802 74.0645 455.736C74.0645 455.702 74.0645 455.669 74.0978 455.669C74.1644 455.436 74.1644 455.203 74.231 454.97C74.231 454.937 74.2309 454.937 74.2642 454.904C74.2975 454.77 74.3308 454.637 74.3308 454.504C74.7302 454.204 75.0963 453.905 75.4957 453.605C76.3943 452.94 77.293 452.208 78.2249 451.542C78.6243 451.242 78.9571 450.976 79.3565 450.71C80.5214 449.844 81.653 449.012 82.818 448.147C144.458 402.716 215.151 368.667 291.669 349.197C291.602 351.56 291.602 353.923 291.602 356.319C291.602 361.611 291.768 366.87 292.101 372.062C293.599 397.757 298.758 422.453 307.145 445.651Z" fill="url(#paint0_linear_3307_43)"/>
<path d="M390.252 331.524V365.805C390.252 368.934 387.356 371.363 383.995 371.097C370.482 369.932 356.836 369.333 342.99 369.333C290.303 369.333 239.779 377.92 192.884 393.663C192.085 393.929 191.319 394.195 190.521 394.462C151.014 407.975 114.169 426.58 80.8532 449.445C80.2541 449.811 79.655 450.244 79.0892 450.677C79.0559 450.677 79.0559 450.71 79.0226 450.71C78.2571 451.243 77.4916 451.775 76.7594 452.308C75.9939 452.807 75.2284 453.373 74.4629 453.905C74.4962 453.672 74.5294 453.473 74.596 453.24C76.6595 451.476 78.7231 449.745 80.8199 448.014L80.8532 447.981C82.118 446.949 83.3827 445.884 84.6475 444.919C116.666 419.091 152.212 396.991 190.554 379.318C191.353 378.952 192.151 378.552 192.984 378.22C253.026 350.928 319.725 334.453 390.252 331.524Z" fill="url(#paint1_linear_3307_43)"/>
<path d="M413.95 281.466V325.965C413.95 328.794 411.554 331.124 408.525 331.257L391.351 331.99C390.952 332.023 390.619 332.023 390.219 332.056C319.693 335.085 252.927 351.726 192.951 379.218C192.519 379.418 192.119 379.618 191.653 379.817C151.381 398.356 114.204 421.82 80.9208 449.379C80.8875 449.379 80.8543 449.412 80.8543 449.445C80.3217 449.845 79.8558 450.277 79.3565 450.71C78.8573 451.076 78.3913 451.509 77.8921 451.908H77.8588C77.8255 451.942 77.7922 451.975 77.7922 452.008C76.594 452.94 75.3959 453.938 74.231 454.97C74.231 454.937 74.2309 454.937 74.2642 454.904C74.6636 454.471 75.0963 454.038 75.4957 453.606C75.8951 453.173 76.3278 452.74 76.7604 452.308C78.0918 450.876 79.4564 449.412 80.8543 448.014C114.071 413.766 152.146 383.645 193.917 358.55C244.407 328.295 300.422 305.363 360.265 291.451C364.392 290.486 368.552 289.587 372.713 288.689C374.776 288.256 376.873 287.823 378.97 287.424C381.2 286.991 383.396 286.558 385.626 286.126C387.557 285.76 389.421 285.427 391.351 285.094C395.112 284.428 398.84 283.796 402.601 283.197C404.498 282.864 406.362 282.598 408.259 282.331C410.189 282.032 412.053 281.766 413.95 281.466Z" fill="url(#paint2_linear_3307_43)"/>
<path d="M437.981 61.299V273.511C437.981 276.141 435.917 278.371 433.121 278.77L414.915 281.333C412.686 281.632 410.489 281.965 408.259 282.298C406.362 282.564 404.498 282.831 402.601 283.163C399.139 283.696 395.744 284.262 392.316 284.861C390.086 285.227 387.856 285.693 385.626 286.092C383.396 286.525 381.2 286.958 378.97 287.39C376.873 287.79 374.776 288.222 372.713 288.655C368.552 289.554 364.392 290.486 360.265 291.417C300.888 305.396 245.305 328.195 195.181 358.183C195.081 358.25 194.982 358.283 194.915 358.35C160.667 378.885 128.981 402.782 100.325 429.542C98.3944 431.339 96.5305 433.136 94.6334 434.967C91.2718 438.229 87.9103 441.524 84.6485 444.885C83.7166 445.817 82.818 446.716 81.9526 447.648C80.9541 448.646 80.0222 449.645 79.0903 450.643C78.9239 450.776 78.7574 450.943 78.6243 451.109C78.5245 451.242 78.3913 451.376 78.2249 451.509C78.1251 451.609 77.9919 451.742 77.8921 451.875H77.8588C77.8255 451.908 77.7922 451.941 77.7922 451.975C76.9602 452.873 76.1281 453.705 75.2627 454.604C75.1629 454.737 75.0297 454.904 74.8633 455.003C74.8633 455.037 74.8301 455.07 74.7968 455.07C74.7635 455.103 74.7302 455.136 74.7302 455.136C74.4972 455.369 74.2642 455.669 74.0312 455.935C74.0645 455.869 74.0645 455.769 74.0645 455.702C74.0645 455.669 74.0645 455.636 74.0978 455.636C74.1644 455.403 74.1644 455.17 74.231 454.937C74.231 454.903 74.2309 454.904 74.2642 454.87C74.2975 454.737 74.3308 454.604 74.3308 454.471C74.3974 454.271 74.3974 454.105 74.4639 453.872C74.5305 453.639 74.5305 453.439 74.5971 453.206C107.68 283.064 228.797 141.578 392.316 71.2839C399.772 68.0888 407.294 65.0268 414.915 62.1644L430.092 56.3399C433.887 54.9753 437.981 57.5381 437.981 61.299Z" fill="url(#paint3_linear_3307_43)"/>
<defs>
<linearGradient id="paint0_linear_3307_43" x1="150.388" y1="329.216" x2="243.357" y2="539.231" gradientUnits="userSpaceOnUse">
<stop offset="0.3227" stop-color="#0E225E"/>
<stop offset="0.3988" stop-color="#112770"/>
<stop offset="0.5312" stop-color="#162E88"/>
<stop offset="0.6708" stop-color="#193399"/>
<stop offset="0.8208" stop-color="#1B36A4"/>
<stop offset="1" stop-color="#1C37A7"/>
</linearGradient>
<linearGradient id="paint1_linear_3307_43" x1="214.826" y1="327.771" x2="251.621" y2="464.072" gradientUnits="userSpaceOnUse">
<stop offset="0.1754" stop-color="#0992FF"/>
<stop offset="0.3617" stop-color="#8DD3FF"/>
<stop offset="0.6635" stop-color="#8FD4FF"/>
<stop offset="0.8248" stop-color="#97D7FF"/>
<stop offset="0.9526" stop-color="#A5DCFF"/>
<stop offset="1" stop-color="#ACDFFF"/>
</linearGradient>
<linearGradient id="paint2_linear_3307_43" x1="221.128" y1="309.574" x2="260.893" y2="411.086" gradientUnits="userSpaceOnUse">
<stop offset="0.111" stop-color="#04568E"/>
<stop offset="0.4027" stop-color="#309EFF"/>
<stop offset="0.9137" stop-color="#309EFF"/>
<stop offset="1" stop-color="#309EFF"/>
</linearGradient>
<linearGradient id="paint3_linear_3307_43" x1="209.488" y1="174.547" x2="295.212" y2="328.245" gradientUnits="userSpaceOnUse">
<stop offset="0.0406" stop-color="#063FB2"/>
<stop offset="0.1678" stop-color="#104BC8"/>
<stop offset="0.351" stop-color="#1B58E0"/>
<stop offset="0.5442" stop-color="#2462F1"/>
<stop offset="0.7519" stop-color="#2867FC"/>
<stop offset="1" stop-color="#2A69FF"/>
</linearGradient>
</defs>
</svg>
